<svg width="320" height="364" viewBox="0 0 320 364" fill="none" xmlns="http://www.w3.org/2000/svg">
<path d="M29.3572 326.913L0.299561 0.875H319.701L290.604 326.861L159.806 363.125L29.3572 326.913Z" fill="#1572B6"/>
<path d="M160 335.413L265.699 306.109L290.565 27.5391H160V335.413Z" fill="#33A9DC"/>
<path d="M160 145.659H212.914L216.563 104.711H160V64.7217H260.266L259.308 75.4469L249.489 185.648H160V145.659Z" fill="white"/>
<path d="M160.246 249.508L160.065 249.56L115.534 237.528L112.688 205.637H72.5425L78.1444 268.422L160.052 291.167L160.246 291.115V249.508Z" fill="#EBEBEB"/>
<path d="M209.512 183.954L204.699 237.502L160.104 249.534V291.141L242.076 268.423L242.684 261.669L249.631 183.954H209.512Z" fill="white"/>
<path d="M160.142 64.7217V104.711H63.551L62.7488 95.7199L60.9247 75.4469L59.9673 64.7217H160.142ZM160 145.659V185.648H116.025L115.223 176.657L113.412 156.384L112.455 145.659H160Z" fill="#EBEBEB"/>
</svg>
