<svg width="416" height="416" viewBox="0 0 416 416" fill="none" xmlns="http://www.w3.org/2000/svg">
<g clip-path="url(#clip0_88_213)">
<path d="M318.5 0H97.5C43.6522 0 0 43.6522 0 97.5V318.5C0 372.348 43.6522 416 97.5 416H318.5C372.348 416 416 372.348 416 318.5V97.5C416 43.6522 372.348 0 318.5 0Z" fill="#F4F2ED"/>
<path d="M370.5 297.273C365.769 299.064 360.546 299.061 355.818 297.263C351.09 295.465 347.184 291.997 344.84 287.515C330.112 265.468 313.849 244.416 298.218 222.913L291.441 213.878C272.828 238.815 254.215 262.758 237.229 287.606C235.016 291.89 231.322 295.223 226.834 296.985C222.346 298.747 217.37 298.818 212.834 297.183L282.677 203.488L217.713 118.825C222.389 117.136 227.505 117.113 232.196 118.759C236.888 120.405 240.868 123.62 243.464 127.86C258.552 149.908 275.269 170.96 291.892 193.278C308.609 171.14 325.143 149.997 340.593 128.131C342.818 123.917 346.515 120.668 350.98 119.002C355.444 117.336 360.366 117.369 364.808 119.096L339.599 152.528C328.305 167.435 317.192 182.434 305.446 196.981C304.499 197.828 303.742 198.866 303.223 200.026C302.704 201.186 302.436 202.442 302.436 203.713C302.436 204.983 302.704 206.24 303.223 207.4C303.742 208.56 304.499 209.597 305.446 210.444C327.041 239.086 348.454 267.818 370.5 297.273ZM45.5 202.313C47.398 193.278 48.5713 183.429 51.1924 174.213C66.8233 118.646 130.522 95.5144 174.343 129.94C200.003 150.09 206.419 178.641 205.155 210.807H60.5897C58.24 268.271 99.7116 302.967 152.748 285.258C161.352 282.18 169.053 277.008 175.158 270.209C181.263 263.41 185.578 255.198 187.715 246.314C190.517 237.279 195.034 235.744 203.617 238.363C202.204 249.363 198.315 259.899 192.243 269.179C186.171 278.46 178.074 286.243 168.561 291.943C152.844 300.539 134.81 303.944 117.04 301.672C99.2706 299.4 82.6741 291.568 69.6248 279.294C56.7146 264.778 48.9086 246.437 47.398 227.07C47.398 223.998 46.2231 220.925 45.591 218.035C45.5312 212.794 45.5009 207.553 45.5 202.313ZM60.7701 198.427H191.511C190.697 156.775 164.404 127.23 129.348 126.96C90.3159 126.417 62.3967 155.329 60.6791 198.247L60.7701 198.427Z" fill="#0F0F0F"/>
</g>
<defs>
<clipPath id="clip0_88_213">
<rect width="416" height="416" fill="white"/>
</clipPath>
</defs>
</svg>
