<svg width="150" height="147" viewBox="0 0 150 147" fill="none" xmlns="http://www.w3.org/2000/svg">
<g clip-path="url(#clip0_44_49)">
<path d="M75.0006 0C33.5843 0 0 33.5781 0 75.0006C0 108.138 21.49 136.251 51.29 146.168C55.0383 146.863 56.4144 144.542 56.4144 142.561C56.4144 140.772 56.3449 134.864 56.3126 128.597C35.4473 133.134 31.0445 119.748 31.0445 119.748C27.6328 111.079 22.717 108.774 22.717 108.774C15.9122 104.119 23.23 104.214 23.23 104.214C30.7613 104.744 34.727 111.943 34.727 111.943C41.4163 123.409 52.2724 120.094 56.5523 118.178C57.2254 113.331 59.1691 110.022 61.314 108.149C44.6554 106.253 27.1434 99.8216 27.1434 71.0834C27.1434 62.8951 30.0733 56.2045 34.871 50.9522C34.0923 49.0631 31.5252 41.4349 35.5976 31.1041C35.5976 31.1041 41.8957 29.0884 56.2281 38.792C62.2107 37.1302 68.6268 36.2968 75.0006 36.2683C81.3745 36.2968 87.7955 37.1302 93.7893 38.792C108.104 29.0884 114.394 31.1041 114.394 31.1041C118.476 41.4349 115.908 49.0631 115.129 50.9522C119.938 56.2045 122.848 62.8951 122.848 71.0834C122.848 99.8899 105.302 106.233 88.6015 108.089C91.2917 110.417 93.6887 114.981 93.6887 121.978C93.6887 132.014 93.6017 140.09 93.6017 142.561C93.6017 144.556 94.9518 146.895 98.7535 146.159C128.537 136.23 150 108.127 150 75.0006C150 33.5781 116.421 0 75.0006 0ZM28.0902 106.84C27.925 107.213 27.3388 107.324 26.8047 107.068C26.2607 106.824 25.9552 106.316 26.1316 105.942C26.293 105.558 26.8805 105.451 27.4232 105.709C27.9685 105.953 28.279 106.466 28.0902 106.84ZM31.7794 110.132C31.4217 110.463 30.7224 110.309 30.248 109.785C29.7574 109.262 29.6655 108.563 30.0282 108.227C30.397 107.895 31.0752 108.05 31.567 108.573C32.0576 109.102 32.1532 109.796 31.7794 110.132ZM34.3103 114.344C33.8508 114.663 33.0994 114.363 32.6349 113.696C32.1753 113.03 32.1753 112.23 32.6448 111.909C33.1105 111.589 33.8508 111.877 34.3215 112.539C34.7798 113.217 34.7798 114.017 34.3103 114.344ZM38.5906 119.221C38.1795 119.675 37.304 119.553 36.6631 118.934C36.0073 118.33 35.8248 117.471 36.2371 117.018C36.6532 116.564 37.5337 116.691 38.1795 117.305C38.8303 117.909 39.0291 118.773 38.5906 119.221ZM44.1226 120.868C43.9412 121.456 43.0979 121.723 42.2484 121.473C41.4002 121.216 40.845 120.528 41.0164 119.934C41.1927 119.343 42.0398 119.065 42.8955 119.332C43.7425 119.588 44.2989 120.271 44.1226 120.868ZM50.4181 121.567C50.4392 122.185 49.7189 122.698 48.8272 122.709C47.9304 122.729 47.2051 122.229 47.1952 121.62C47.1952 120.995 47.8994 120.487 48.7961 120.472C49.6879 120.455 50.4181 120.952 50.4181 121.567ZM56.6028 121.329C56.7096 121.933 56.0899 122.553 55.2044 122.718C54.3337 122.877 53.5277 122.504 53.4171 121.906C53.3091 121.287 53.94 120.668 54.8094 120.507C55.6962 120.353 56.4898 120.716 56.6028 121.329Z" fill="white"/>
</g>
<defs>
<clipPath id="clip0_44_49">
<rect width="150" height="146.484" fill="white"/>
</clipPath>
</defs>
</svg>
