<svg width="320" height="364" viewBox="0 0 320 364" fill="none" xmlns="http://www.w3.org/2000/svg">
<path d="M29.3572 326.913L0.286621 0.875H319.713L290.604 326.861L159.806 363.125L29.3572 326.913Z" fill="#E44F26"/>
<path d="M160 335.413L265.699 306.109L290.565 27.5391H160V335.413Z" fill="#F1662A"/>
<path d="M160 148.453H107.086L103.437 107.506H160V67.5161H59.7344L60.6918 78.2542L70.5113 188.443H160V148.453ZM160 252.302L159.819 252.354L115.288 240.335L112.442 208.444H72.2967L77.8986 271.217L159.819 293.961L160 293.909V252.302Z" fill="#EBEBEB"/>
<path d="M159.858 148.453V188.443H209.098L204.466 240.309L159.858 252.341V293.948L241.843 271.217L242.438 264.464L251.83 159.191L252.814 148.453H242.037H159.858ZM159.858 67.5161V107.506H256.449L257.251 98.5273L259.075 78.2542L260.033 67.5161H159.858Z" fill="white"/>
</svg>
