<svg width="151" height="151" viewBox="0 0 151 151" fill="none" xmlns="http://www.w3.org/2000/svg">
<g clip-path="url(#clip0_44_29)">
<path d="M44.3084 1.30896C36.3284 1.68546 30.8789 2.95896 26.1149 4.83096C21.1844 6.75246 17.0054 9.33096 12.8474 13.504C8.68936 17.677 6.12886 21.859 4.22086 26.797C2.37436 31.5715 1.12336 37.0255 0.770861 45.01C0.418361 52.9945 0.340361 55.561 0.379361 75.928C0.418361 96.295 0.508361 98.848 0.895361 106.849C1.27636 114.827 2.54536 120.275 4.41736 125.041C6.34186 129.971 8.91736 134.149 13.0919 138.308C17.2664 142.468 21.4454 145.022 26.3954 146.933C31.1654 148.777 36.6209 150.034 44.6039 150.383C52.5869 150.733 55.1564 150.814 75.5174 150.775C95.8784 150.736 98.4419 150.646 106.441 150.266C114.441 149.887 119.86 148.609 124.627 146.746C129.558 144.817 133.738 142.246 137.895 138.07C142.051 133.894 144.61 129.709 146.517 124.768C148.365 119.998 149.62 114.542 149.967 106.565C150.316 98.56 150.399 96.004 150.36 75.64C150.321 55.276 150.229 52.723 149.85 44.725C149.47 36.727 148.2 31.2955 146.329 26.527C144.402 21.5965 141.829 17.422 137.656 13.2595C133.483 9.09696 129.295 6.53946 124.356 4.63746C119.583 2.79096 114.13 1.53246 106.147 1.18746C98.1644 0.842456 95.5949 0.753956 75.2264 0.792956C54.8579 0.831956 52.3079 0.918956 44.3084 1.30896ZM45.1844 136.891C37.8719 136.573 33.9014 135.358 31.2554 134.341C27.7514 132.991 25.2554 131.359 22.6184 128.747C19.9814 126.136 18.3614 123.631 16.9934 120.134C15.9659 117.488 14.7284 113.522 14.3864 106.21C14.0144 98.3065 13.9364 95.9335 13.8929 75.91C13.8494 55.8865 13.9259 53.5165 14.2724 45.61C14.5844 38.3035 15.8069 34.3285 16.8224 31.684C18.1724 28.1755 19.7984 25.684 22.4159 23.0485C25.0334 20.413 27.5309 18.79 31.0304 17.422C33.6734 16.39 37.6394 15.163 44.9489 14.815C52.8584 14.44 55.2284 14.365 75.2489 14.3215C95.2694 14.278 97.6454 14.353 105.558 14.701C112.864 15.019 116.841 16.2295 119.482 17.251C122.988 18.601 125.482 20.2225 128.118 22.8445C130.753 25.4665 132.378 27.955 133.746 31.462C134.779 34.0975 136.006 38.062 136.351 45.376C136.728 53.2855 136.813 55.657 136.849 75.676C136.885 95.695 136.815 98.0725 136.468 105.976C136.149 113.288 134.937 117.26 133.918 119.909C132.568 123.412 130.941 125.909 128.322 128.543C125.703 131.177 123.208 132.8 119.707 134.168C117.067 135.199 113.097 136.429 105.793 136.777C97.8839 137.149 95.5139 137.227 75.4859 137.27C55.4579 137.314 53.0954 137.233 45.1859 136.891M106.326 35.6995C106.329 37.4796 106.86 39.2189 107.851 40.6974C108.843 42.1758 110.25 43.327 111.896 44.0054C113.542 44.6837 115.352 44.8588 117.097 44.5083C118.843 44.1579 120.445 43.2978 121.701 42.0367C122.958 40.7757 123.812 39.1703 124.156 37.4237C124.5 35.6771 124.319 33.8677 123.634 32.2244C122.95 30.581 121.793 29.1775 120.311 28.1914C118.829 27.2053 117.088 26.6809 115.308 26.6845C112.921 26.6892 110.635 27.6416 108.95 29.3322C107.266 31.0227 106.322 33.313 106.326 35.6995ZM36.8609 75.859C36.9029 97.129 54.1769 114.332 75.4424 114.292C96.7079 114.251 113.923 96.979 113.883 75.709C113.842 54.439 96.5639 37.231 75.2954 37.273C54.0269 37.315 36.8204 54.592 36.8609 75.859ZM50.3699 75.832C50.3601 70.8873 51.8168 66.0509 54.5557 61.9341C57.2947 57.8174 61.1929 54.6053 65.7573 52.704C70.3218 50.8028 75.3476 50.2977 80.1991 51.2528C85.0506 52.2078 89.51 54.5801 93.0133 58.0695C96.5166 61.559 98.9065 66.0089 99.8807 70.8566C100.855 75.7043 100.37 80.732 98.4867 85.304C96.6035 89.876 93.4069 93.7869 89.301 96.5421C85.1951 99.2973 80.3645 100.773 75.4199 100.783C72.1366 100.79 68.8842 100.15 65.8483 98.8997C62.8125 97.6494 60.0526 95.8134 57.7264 93.4964C55.4003 91.1794 53.5533 88.4268 52.291 85.3959C51.0288 82.3651 50.376 79.1152 50.3699 75.832Z" fill="white"/>
</g>
<defs>
<clipPath id="clip0_44_29">
<rect width="150" height="150" fill="white" transform="translate(0.370361 0.783936)"/>
</clipPath>
</defs>
</svg>
