<svg width="414" height="414" viewBox="0 0 414 414" fill="none" xmlns="http://www.w3.org/2000/svg">
<path d="M4.55396 4.5542H409.446V409.449H4.55396V4.5542Z" fill="#F0DB4F"/>
<path d="M376.31 312.881C373.344 294.409 361.299 278.894 325.621 264.426C313.227 258.731 299.409 254.652 295.292 245.259C293.83 239.793 293.636 236.714 294.561 233.405C297.216 222.667 310.034 219.32 320.193 222.399C326.737 224.592 332.93 229.634 336.666 237.678C354.138 226.364 354.103 226.439 366.303 218.663C361.836 211.738 359.452 208.543 356.528 205.58C346.02 193.843 331.701 187.798 308.802 188.26L296.874 189.803C285.443 192.691 274.55 198.691 268.162 206.735C248.995 228.483 254.461 266.545 277.784 282.209C300.761 299.455 334.515 303.378 338.827 319.505C343.022 339.247 324.317 345.638 305.726 343.368C292.025 340.518 284.405 333.555 276.167 320.892C261.004 329.667 261.004 329.667 245.415 338.633C249.112 346.715 252.996 350.373 259.193 357.376C288.522 387.126 361.917 385.664 375.081 340.635C375.614 339.089 379.159 328.777 376.31 312.881ZM224.666 190.644H186.795L186.64 288.555C186.64 309.378 187.717 328.467 184.33 334.318C178.79 345.826 164.432 344.4 157.889 342.168C151.23 338.895 147.843 334.24 143.92 327.662C142.843 325.773 142.034 324.311 141.763 324.198L110.971 343.054C116.091 353.562 123.634 362.683 133.295 368.609C147.727 377.27 167.123 379.926 187.409 375.268C200.612 371.423 212.004 363.456 217.968 351.331C226.591 335.434 224.741 316.193 224.663 294.91C224.857 260.189 224.666 225.475 224.666 190.644Z" fill="#323330"/>
</svg>
