<svg width="30" height="30" viewBox="0 0 30 30" fill="none" xmlns="http://www.w3.org/2000/svg">
<path d="M6.62109 8.86719V30H0.976562V8.86719H6.62109ZM0.625 3.35938C0.625 2.53906 0.911458 1.86198 1.48438 1.32812C2.05729 0.794271 2.82552 0.527344 3.78906 0.527344C4.73958 0.527344 5.5013 0.794271 6.07422 1.32812C6.66016 1.86198 6.95312 2.53906 6.95312 3.35938C6.95312 4.17969 6.66016 4.85677 6.07422 5.39062C5.5013 5.92448 4.73958 6.19141 3.78906 6.19141C2.82552 6.19141 2.05729 5.92448 1.48438 5.39062C0.911458 4.85677 0.625 4.17969 0.625 3.35938ZM16.7773 13.3789V30H11.1523V8.86719H16.4258L16.7773 13.3789ZM15.957 18.6914H14.4336C14.4336 17.1289 14.6354 15.7227 15.0391 14.4727C15.4427 13.2096 16.0091 12.1354 16.7383 11.25C17.4674 10.3516 18.3333 9.66797 19.3359 9.19922C20.3516 8.71745 21.4844 8.47656 22.7344 8.47656C23.724 8.47656 24.6289 8.61979 25.4492 8.90625C26.2695 9.19271 26.9727 9.64844 27.5586 10.2734C28.1576 10.8984 28.6133 11.7253 28.9258 12.7539C29.2513 13.7826 29.4141 15.0391 29.4141 16.5234V30H23.75V16.5039C23.75 15.5664 23.6198 14.8372 23.3594 14.3164C23.099 13.7956 22.7148 13.431 22.207 13.2227C21.7122 13.0013 21.1003 12.8906 20.3711 12.8906C19.6159 12.8906 18.9583 13.0404 18.3984 13.3398C17.8516 13.6393 17.3958 14.056 17.0312 14.5898C16.6797 15.1107 16.4128 15.7227 16.2305 16.4258C16.0482 17.1289 15.957 17.8841 15.957 18.6914Z" fill="black"/>
</svg>
