<svg width="128" height="68" viewBox="0 0 128 68" fill="none" xmlns="http://www.w3.org/2000/svg">
<path d="M0 61.3132H4.242V44.5662L10.808 59.1642C11.581 60.9342 12.64 61.5552 14.722 61.5552C16.804 61.5552 17.82 60.9342 18.593 59.1642L25.159 44.5662V61.3122H29.401V44.5942C29.401 42.9612 28.749 42.1722 27.401 41.7662C24.178 40.7622 22.018 41.6292 21.038 43.8052L14.597 58.2152L8.359 43.8052C7.422 41.6292 5.219 40.7622 2 41.7662C0.652 42.1722 0 42.9612 0 44.5942L0 61.3132ZM32.93 47.6802H37.168V56.9072C37.129 57.4072 37.328 58.5832 39.652 58.6222H48.875V47.6332H53.125C53.145 47.6332 53.117 62.6172 53.117 62.6802C53.14 66.3752 48.535 67.1762 46.41 67.2392H33.02V64.3872L46.434 64.3832C49.164 64.0982 48.84 62.7382 48.84 62.2852V61.1722H39.828C35.633 61.1332 32.965 59.3012 32.93 57.1952C32.926 57.0042 33.02 47.7742 32.93 47.6802Z" fill="#00618A"/>
<path d="M56.3911 61.3128H68.5861C70.0121 61.3128 71.3991 61.0118 72.5001 60.4968C74.3361 59.6568 75.2301 58.5128 75.2301 57.0168V53.9188C75.2301 52.6958 74.2141 51.5518 72.2141 50.7938C71.1551 50.3838 69.8471 50.1688 68.5851 50.1688H63.4441C61.7331 50.1688 60.9171 49.6528 60.7141 48.5128C60.6751 48.3758 60.6751 48.2668 60.6751 48.1298V46.1998C60.6751 46.0908 60.6751 45.9808 60.7141 45.8448C60.9171 44.9778 61.3661 44.7318 62.8741 44.5948L63.2841 44.5678H75.3931V41.7438H63.4881C61.7771 41.7438 60.8791 41.8528 60.0621 42.0958C57.5351 42.8848 56.4331 44.1348 56.4331 46.3108V48.7838C56.4331 50.6858 58.5931 52.3188 62.2221 52.6978L63.4451 52.7528H67.8511C68.0151 52.7528 68.1751 52.7528 68.3001 52.7798C69.6441 52.8888 70.2141 53.1348 70.6241 53.6238C70.8351 53.8188 70.9561 54.0968 70.9481 54.3818V56.8588C70.9481 57.1558 70.7451 57.5388 70.3391 57.8628C69.9721 58.1908 69.3591 58.4058 68.5461 58.4608L68.0971 58.4878H56.3911V61.3128ZM101.688 56.3908C101.688 59.3008 103.852 60.9298 108.211 61.2578L109.438 61.3128H120.489V58.4848H109.356C106.868 58.4848 105.93 57.8598 105.93 56.3638V41.7378H101.692V56.3898L101.688 56.3908ZM77.9381 56.5388V46.4568C77.9381 43.8978 79.7391 42.3438 83.2931 41.8548C83.6723 41.8 84.055 41.7726 84.4381 41.7728H92.4851C92.8951 41.7728 93.2621 41.7998 93.6731 41.8548C97.2281 42.3428 99.0251 43.8978 99.0251 46.4568V56.5388C99.0251 58.6168 98.2631 59.7268 96.5021 60.4528L100.682 64.2228H95.7561L92.3771 61.1718L88.9751 61.3868H84.4401C83.5973 61.3838 82.7588 61.2654 81.9481 61.0348C79.2491 60.3008 77.9401 58.8828 77.9401 56.5388H77.9381ZM82.5161 56.2928C82.5161 56.4298 82.5551 56.5658 82.5981 56.7308C82.8441 57.9028 83.9461 58.5548 85.6211 58.5548H89.4731L85.9341 55.3598H90.8601L93.9461 58.1488C94.5161 57.8438 94.8871 57.3828 95.0201 56.7858C95.0591 56.6488 95.0591 56.5128 95.0591 56.3758V46.7078C95.0591 46.5988 95.0591 46.4618 95.0201 46.3248C94.7741 45.2348 93.6721 44.6098 92.0361 44.6098H85.6221C83.7431 44.6098 82.5171 45.4258 82.5171 46.7078L82.5161 56.2928Z" fill="#E48E00"/>
<path d="M124.219 37.0472C121.614 36.9772 119.621 37.2192 117.918 37.9382C117.434 38.1412 116.66 38.1452 116.582 38.7512C116.848 39.0322 116.891 39.4502 117.102 39.7902C117.508 40.4502 118.196 41.3292 118.809 41.7902L120.883 43.2742C122.156 44.0512 123.582 44.4972 124.813 45.2742C125.536 45.7352 126.254 46.3132 126.961 46.8332C127.309 47.0872 127.543 47.4892 128 47.6492V47.5752C127.762 47.2702 127.699 46.8522 127.48 46.5362L126.515 45.5712C125.574 44.3212 124.378 43.2232 123.105 42.3092C122.089 41.5822 119.824 40.5982 119.398 39.4182L119.324 39.3442C120.043 39.2662 120.887 39.0042 121.547 38.8282C122.664 38.5272 123.66 38.6052 124.809 38.3082L126.368 37.8592V37.5662C125.786 36.9682 125.372 36.1792 124.735 35.6362C123.079 34.2262 121.266 32.8122 119.399 31.6322C118.364 30.9802 117.087 30.5582 115.989 30.0032C115.622 29.8162 114.973 29.7222 114.727 29.4092C114.153 28.6752 113.84 27.7452 113.395 26.8892L110.727 21.2562C110.165 19.9712 109.797 18.7012 109.094 17.5492C105.731 12.0142 102.106 8.67418 96.4918 5.39318C95.3008 4.69418 93.8588 4.42018 92.3438 4.06118L89.8948 3.91317C89.3988 3.70217 88.8828 3.09318 88.4148 2.80018C86.5558 1.62418 81.7858 -0.929822 80.4068 2.42918C79.5398 4.55018 81.7078 6.62018 82.4848 7.69518C83.0278 8.44918 83.7268 9.29318 84.1138 10.1402C84.3718 10.6952 84.4148 11.2532 84.6338 11.8432C85.1728 13.2962 85.6418 14.8742 86.3408 16.2182C86.6928 16.8982 87.0788 17.6132 87.5248 18.2182C87.7978 18.5892 88.2668 18.7572 88.3408 19.3312C87.8838 19.9722 87.8568 20.9642 87.5988 21.7762C86.4388 25.4282 86.8758 29.9672 88.5638 32.6742C89.0798 33.5022 90.2978 35.2832 91.9738 34.6002C93.4388 34.0022 93.1108 32.1552 93.5288 30.5222C93.6268 30.1552 93.5678 29.8812 93.7518 29.6352V29.7092L95.0878 32.3772C96.0758 33.9672 97.8258 35.6272 99.3108 36.7482C100.084 37.3302 100.69 38.3382 101.686 38.6782V38.6002H101.612C101.417 38.3032 101.116 38.1782 100.87 37.9362C100.288 37.3662 99.6428 36.6592 99.1668 36.0062C97.8148 34.1742 96.6198 32.1662 95.5338 30.0762C95.0138 29.0802 94.5608 27.9782 94.1238 26.9632C93.9558 26.5722 93.9598 25.9792 93.6078 25.7792C93.1278 26.5212 92.4208 27.1232 92.0488 28.0022C91.4548 29.4042 91.3808 31.1192 91.1578 32.8932L91.0098 32.9672C89.9788 32.7172 89.6148 31.6552 89.2328 30.7442C88.2598 28.4392 88.0808 24.7242 88.9358 22.0722C89.1548 21.3852 90.1548 19.2202 89.7488 18.5882C89.5578 17.9552 88.9208 17.5882 88.5648 17.1042C88.0994 16.4552 87.7016 15.7602 87.3778 15.0302C86.5848 13.2292 86.2138 11.2142 85.3778 9.39718C84.9798 8.52618 84.3038 7.64718 83.7488 6.87418C83.1318 6.01918 82.4438 5.39018 81.9678 4.35418C81.7998 3.98718 81.5698 3.39718 81.8198 3.01818C81.8978 2.76418 82.0148 2.65918 82.2648 2.57718C82.6948 2.24518 83.8938 2.68618 84.3388 2.87018C85.5298 3.36618 86.5228 3.83518 87.5298 4.50318C88.0098 4.82318 88.4988 5.44418 89.0848 5.61618H89.7528C90.7958 5.85418 91.9638 5.68618 92.9408 5.98318C94.6638 6.50618 96.2108 7.32318 97.6088 8.21018C101.882 10.9052 105.375 14.7452 107.765 19.3272C108.152 20.0652 108.316 20.7682 108.656 21.5502C109.34 23.1282 110.199 24.7532 110.879 26.2962C111.559 27.8392 112.219 29.3902 113.176 30.6712C113.68 31.3432 115.629 31.7022 116.512 32.0772C117.133 32.3392 118.149 32.6122 118.735 32.9682C119.86 33.6442 120.946 34.4482 122.001 35.1912C122.524 35.5662 124.142 36.3792 124.224 37.0462L124.219 37.0472ZM91.0818 8.80518C90.6333 8.79751 90.1857 8.84725 89.7498 8.95318V9.02718H89.8238C90.0818 9.56218 90.5388 9.90618 90.8588 10.3632L91.6008 11.9182L91.6748 11.8482C92.1358 11.5242 92.3428 11.0042 92.3428 10.2152C92.1558 10.0202 92.1318 9.77818 91.9718 9.54718C91.7608 9.23818 91.3518 9.06718 91.0818 8.80518Z" fill="#00618A"/>
</svg>
