<svg width="414" height="414" viewBox="0 0 414 414" fill="none" xmlns="http://www.w3.org/2000/svg">
<g clip-path="url(#clip0_88_185)">
<path fill-rule="evenodd" clip-rule="evenodd" d="M5.95794e-06 207C0.00454964 171.283 9.25067 136.175 26.8394 105.089C44.4282 74.003 69.761 47.9971 100.375 29.5995C130.989 11.2019 165.843 1.03857 201.547 0.0977237C237.252 -0.843126 272.592 7.47047 304.133 24.2302C335.673 40.99 362.34 65.6257 381.542 95.7421C400.743 125.858 411.826 160.431 413.711 196.098C415.597 231.765 408.222 267.313 392.303 299.286C376.384 331.259 352.462 358.569 322.865 378.561L135.406 116.196C133.704 113.828 131.295 112.06 128.526 111.146C125.758 110.231 122.77 110.218 119.993 111.107C117.216 111.996 114.792 113.742 113.068 116.094C111.345 118.446 110.411 121.284 110.4 124.2V331.2H138V167.256L298.908 392.527C267.345 408.167 232.312 415.494 197.127 413.814C161.941 412.133 127.766 401.502 97.8367 382.925C67.9074 364.349 43.2138 338.441 26.0932 307.656C8.97265 276.871 -0.00844456 242.225 5.95794e-06 207ZM276 276V110.4H303.6V276H276Z" fill="white"/>
</g>
<defs>
<clipPath id="clip0_88_185">
<rect width="414" height="414" fill="white"/>
</clipPath>
</defs>
</svg>
