<svg width="414" height="414" viewBox="0 0 414 414" fill="none" xmlns="http://www.w3.org/2000/svg">
<g clip-path="url(#clip0_88_233)">
<path d="M316.969 0H97.0312C43.4424 0 0 43.4424 0 97.0312V316.969C0 370.558 43.4424 414 97.0312 414H316.969C370.558 414 414 370.558 414 316.969V97.0312C414 43.4424 370.558 0 316.969 0Z" fill="#F4F2ED"/>
<path d="M196.409 45.3685C195.713 45.4316 193.5 45.6531 191.507 45.81C145.569 49.9516 102.539 74.7399 75.2848 112.838C60.1107 134.021 50.4027 158.049 46.7366 183.502C45.4412 192.387 45.2827 195.012 45.2827 207.057C45.2827 219.103 45.4412 221.728 46.7382 230.611C55.526 291.346 98.7469 342.376 157.364 361.283C167.861 364.666 178.925 366.974 191.509 368.365C196.411 368.901 217.592 368.901 222.494 368.365C244.215 365.961 262.615 360.587 280.763 351.323C283.545 349.901 284.083 349.521 283.703 349.206C283.451 349.015 271.594 333.111 257.367 313.89L231.505 278.953L199.097 230.991C181.266 204.623 166.596 183.059 166.468 183.059C166.342 183.028 166.216 204.338 166.153 230.359C166.058 275.918 166.027 277.752 165.458 278.826C164.636 280.375 164.004 281.007 162.674 281.704C161.664 282.209 160.777 282.304 156.003 282.304H150.534L149.079 281.387C148.178 280.823 147.446 280.026 146.96 279.08L146.297 277.656L146.362 214.266L146.456 150.843L147.436 149.609C147.942 148.946 149.017 148.092 149.776 147.681C151.071 147.049 151.577 146.986 157.047 146.986C163.498 146.986 164.571 147.238 166.248 149.072C166.722 149.578 184.269 176.01 205.263 207.847C226.517 240.073 247.784 272.29 269.064 304.499L294.674 343.293L295.971 342.439C307.447 334.978 319.588 324.354 329.199 313.288C349.655 289.797 362.84 261.153 367.266 230.611C368.562 221.728 368.72 219.103 368.72 207.057C368.72 195.012 368.562 192.387 367.266 183.502C358.477 122.767 315.256 71.7384 256.639 52.8318C246.301 49.4794 235.299 47.1717 222.968 45.7809C219.932 45.4639 199.034 45.1178 196.411 45.3701M262.615 143.192C264.132 143.951 265.366 145.404 265.809 146.921C266.061 147.745 266.124 165.323 266.061 204.938L265.966 261.785L255.944 246.419L245.89 231.054V189.732C245.89 163.016 246.016 147.997 246.205 147.269C246.711 145.5 247.818 144.109 249.336 143.286C250.632 142.623 251.107 142.558 256.07 142.558C260.75 142.558 261.572 142.623 262.615 143.192Z" fill="black"/>
</g>
<defs>
<clipPath id="clip0_88_233">
<rect width="414" height="414" fill="white"/>
</clipPath>
</defs>
</svg>
