<svg width="356" height="402" viewBox="0 0 356 402" fill="none" xmlns="http://www.w3.org/2000/svg">
<g clip-path="url(#clip0_88_187)">
<path d="M178 401.254C172.472 401.254 167.313 399.78 162.522 397.199L113.507 368.077C106.137 364.023 109.822 362.548 112.033 361.811C121.983 358.493 123.825 357.756 134.144 351.857C135.251 351.12 136.725 351.488 137.829 352.226L175.42 374.712C176.894 375.45 178.737 375.45 179.843 374.712L326.887 289.559C328.361 288.822 329.098 287.348 329.098 285.505V115.564C329.098 113.721 328.361 112.247 326.887 111.51L179.843 26.7238C178.369 25.9865 176.526 25.9865 175.42 26.7238L28.3757 111.511C26.9016 112.248 26.1646 114.091 26.1646 115.566V285.505C26.1646 286.979 26.9016 288.822 28.3757 289.559L68.5467 312.782C90.2905 323.841 103.924 310.939 103.924 298.038V130.309C103.924 128.097 105.768 125.886 108.348 125.886H127.143C129.355 125.886 131.566 127.729 131.566 130.309V298.036C131.566 327.158 115.718 344.115 88.078 344.115C79.6022 344.115 72.9689 344.115 54.1746 334.899L15.4777 312.782C5.89625 307.252 0 296.93 0 285.872V115.934C0 104.876 5.89625 94.5546 15.4777 89.024L162.522 3.87096C171.735 -1.28967 184.265 -1.28967 193.478 3.87096L340.522 89.024C350.104 94.5533 356 104.874 356 115.934V285.873C356 296.932 350.104 307.253 340.522 312.782L193.478 397.938C188.687 400.15 183.159 401.256 178 401.256M223.329 284.399C158.836 284.399 145.569 254.91 145.569 229.842C145.569 227.631 147.412 225.419 149.991 225.419H169.154C171.365 225.419 173.209 226.893 173.209 229.105C176.157 248.642 184.633 258.227 223.697 258.227C254.654 258.227 267.922 251.223 267.922 234.636C267.922 225.05 264.237 218.047 215.959 213.253C175.789 209.198 150.728 200.352 150.728 168.282C150.728 138.421 175.788 120.728 217.801 120.728C264.972 120.728 288.19 136.947 291.138 172.335C291.138 173.441 290.77 174.547 290.033 175.653C289.296 176.39 288.19 177.127 287.085 177.127H267.922C266.078 177.127 264.237 175.653 263.867 173.81C259.445 153.536 248.021 146.901 217.801 146.901C183.898 146.901 179.843 158.697 179.843 167.543C179.843 178.235 184.633 181.551 230.331 187.449C275.661 193.346 297.035 201.826 297.035 233.528C296.666 265.968 270.133 284.399 223.329 284.399Z" fill="#539E43"/>
</g>
<defs>
<clipPath id="clip0_88_187">
<rect width="356" height="402" fill="white"/>
</clipPath>
</defs>
</svg>
