<svg width="88" height="78" viewBox="0 0 88 78" fill="none" xmlns="http://www.w3.org/2000/svg">
<path d="M87.4094 38.9549C87.4094 33.1607 80.158 27.6696 69.0403 24.2644C71.6059 12.9255 70.4656 3.9044 65.4413 1.01621C64.2832 0.338738 62.9291 0.0178281 61.4503 0.0178281V3.99355C62.2699 3.99355 62.9291 4.154 63.4814 4.45708C65.9045 5.84769 66.9557 11.1427 66.1361 17.9531C65.9401 19.629 65.6194 21.394 65.2275 23.1947C61.7354 22.3389 57.9225 21.6793 53.9138 21.2514C51.5085 17.9531 49.0141 14.958 46.502 12.3372C52.3102 6.93522 57.7622 3.97572 61.4681 3.97572V0C56.5685 0 50.1544 3.49435 43.6691 9.55599C37.1837 3.53001 30.7697 0.0713136 25.8701 0.0713136V4.04703C29.5581 4.04703 35.0279 6.98871 40.8362 12.355C38.3418 14.9758 35.8475 17.9531 33.4778 21.2514C29.4512 21.6793 25.6384 22.3389 22.1463 23.2125C21.7365 21.4297 21.4337 19.7003 21.2199 18.0423C20.3825 11.2319 21.4158 5.93684 23.8211 4.5284C24.3556 4.20749 25.0505 4.06486 25.8701 4.06486V0.0891417C24.3734 0.0891417 23.0194 0.410051 21.8434 1.08753C16.8369 3.97572 15.7145 12.979 18.2979 24.2822C7.21582 27.7052 0 33.1785 0 38.9549C0 44.7491 7.25145 50.2402 18.3692 53.6455C15.8035 64.9843 16.9438 74.0054 21.9682 76.8936C23.1263 77.5711 24.4803 77.892 25.977 77.892C30.8766 77.892 37.2906 74.3976 43.776 68.336C50.2613 74.362 56.6754 77.8207 61.575 77.8207C63.0716 77.8207 64.4257 77.4998 65.6016 76.8223C70.6081 73.9341 71.7306 64.9308 69.1472 53.6276C80.1936 50.2224 87.4094 44.7313 87.4094 38.9549ZM64.2119 27.0634C63.5527 29.3633 62.7331 31.7344 61.8066 34.1056C61.0761 32.6793 60.31 31.2531 59.4726 29.8268C58.653 28.4005 57.78 27.0099 56.907 25.655C59.437 26.0294 61.8779 26.4929 64.2119 27.0634ZM56.0518 46.0506C54.6621 48.4574 53.2367 50.7394 51.7579 52.861C49.1032 53.0928 46.4129 53.2176 43.7047 53.2176C41.0144 53.2176 38.324 53.0928 35.6871 52.8788C34.2083 50.7573 32.7652 48.4931 31.3755 46.1041C30.0214 43.7686 28.792 41.3974 27.6696 39.0084C28.7742 36.6194 30.0214 34.2304 31.3576 31.8949C32.7474 29.4881 34.1727 27.206 35.6515 25.0845C38.3062 24.8527 40.9966 24.7279 43.7047 24.7279C46.3951 24.7279 49.0854 24.8527 51.7223 25.0666C53.2011 27.1882 54.6443 29.4524 56.034 31.8414C57.388 34.1769 58.6174 36.5481 59.7399 38.9371C58.6174 41.3261 57.388 43.7151 56.0518 46.0506ZM61.8066 43.7329C62.7687 46.1219 63.5883 48.5109 64.2653 50.8286C61.9313 51.3991 59.4726 51.8805 56.9248 52.2549C57.7978 50.8821 58.6709 49.4736 59.4904 48.0295C60.31 46.6033 61.0761 45.1592 61.8066 43.7329ZM43.7403 62.7557C42.0834 61.0442 40.4264 59.1366 38.7873 57.0507C40.3908 57.122 42.0299 57.1755 43.6869 57.1755C45.3617 57.1755 47.0186 57.1398 48.64 57.0507C47.0365 59.1366 45.3795 61.0442 43.7403 62.7557ZM30.4846 52.2549C27.9546 51.8805 25.5137 51.4169 23.1797 50.8464C23.8389 48.5466 24.6585 46.1754 25.585 43.8042C26.3155 45.2305 27.0816 46.6568 27.919 48.083C28.7564 49.5093 29.6116 50.8999 30.4846 52.2549ZM43.6513 15.1541C45.3082 16.8656 46.9652 18.7732 48.6043 20.8592C47.0008 20.7878 45.3617 20.7344 43.7047 20.7344C42.0299 20.7344 40.373 20.77 38.7516 20.8592C40.3551 18.7732 42.0121 16.8656 43.6513 15.1541ZM30.4668 25.655C29.5938 27.0278 28.7207 28.4362 27.9012 29.8803C27.0816 31.3066 26.3155 32.7328 25.585 34.1591C24.6229 31.7701 23.8033 29.3811 23.1263 27.0634C25.4603 26.5107 27.919 26.0294 30.4668 25.655ZM14.3426 47.9761C8.0354 45.284 3.95534 41.754 3.95534 38.9549C3.95534 36.1559 8.0354 32.608 14.3426 29.9338C15.8748 29.2741 17.5496 28.6858 19.2778 28.1331C20.2934 31.6275 21.6296 35.2644 23.2866 38.9906C21.6475 42.6989 20.329 46.318 19.3313 49.7945C17.5674 49.2419 15.8926 48.6357 14.3426 47.9761ZM23.928 73.4527C21.5049 72.0621 20.4537 66.7671 21.2733 59.9567C21.4693 58.2808 21.79 56.5158 22.182 54.7152C25.6741 55.5709 29.4869 56.2306 33.4957 56.6584C35.9009 59.9567 38.3953 62.9518 40.9075 65.5726C35.0992 70.9746 29.6472 73.9341 25.9413 73.9341C25.1396 73.9163 24.4625 73.7558 23.928 73.4527ZM66.1896 59.8675C67.027 66.678 65.9936 71.973 63.5883 73.3814C63.0538 73.7023 62.3589 73.845 61.5394 73.845C57.8513 73.845 52.3815 70.9033 46.5732 65.537C49.0676 62.9162 51.5619 59.9389 53.9316 56.6406C57.9582 56.2127 61.771 55.5531 65.2631 54.6795C65.6729 56.4802 65.9936 58.2095 66.1896 59.8675ZM73.0491 47.9761C71.5168 48.6357 69.842 49.224 68.1138 49.7767C67.0982 46.2824 65.762 42.6454 64.105 38.9193C65.7441 35.211 67.0626 31.5918 68.0603 28.1153C69.8242 28.668 71.499 29.2741 73.0669 29.9338C79.374 32.6259 83.4541 36.1559 83.4541 38.9549C83.4363 41.754 79.3562 45.3018 73.0491 47.9761Z" fill="white"/>
<path d="M43.1423 47.2951C47.6392 47.2951 51.2846 43.6473 51.2846 39.1475C51.2846 34.6478 47.6392 31 43.1423 31C38.6454 31 35 34.6478 35 39.1475C35 43.6473 38.6454 47.2951 43.1423 47.2951Z" fill="white"/>
</svg>
