<svg width="415" height="250" viewBox="0 0 415 250" fill="none" xmlns="http://www.w3.org/2000/svg">
<path d="M207.013 0.806641C151.812 0.806641 117.323 28.3959 103.513 83.5969C124.206 56.0045 148.364 45.6577 175.956 52.5566C191.711 56.4832 202.97 67.907 215.438 80.5663C235.731 101.16 259.219 125 310.513 125C365.711 125 400.202 97.4077 414.013 42.1937C393.316 69.8023 369.162 80.1491 341.566 73.2502C325.815 69.3204 314.569 57.8998 302.084 45.2405C281.804 24.6472 258.323 0.806641 207.013 0.806641ZM103.513 125C48.3149 125 13.8235 152.593 0.0126953 207.807C20.7062 180.198 44.8605 169.851 72.4562 176.75C88.2109 180.68 99.4697 192.101 111.938 204.76C132.231 225.353 155.719 249.194 207.013 249.194C262.211 249.194 296.702 221.604 310.513 166.403C289.816 193.996 265.662 204.343 238.066 197.444C222.315 193.517 211.069 182.093 198.584 169.434C178.304 148.841 154.823 125 103.513 125Z" fill="#38BDF8"/>
</svg>
