<svg width="38" height="38" viewBox="0 0 38 38" fill="none" xmlns="http://www.w3.org/2000/svg">
<path d="M30.1623 7.7741C28.7107 6.30781 26.9816 5.14524 25.076 4.35418C23.1704 3.56312 21.1264 3.15941 19.0631 3.1666C10.4181 3.1666 3.37227 10.2124 3.37227 18.8574C3.37227 21.6283 4.10061 24.3199 5.46227 26.6949L3.24561 34.8333L11.5581 32.6483C13.8539 33.8991 16.4348 34.5641 19.0631 34.5641C27.7081 34.5641 34.7539 27.5183 34.7539 18.8733C34.7539 14.6774 33.1231 10.7349 30.1623 7.7741ZM19.0631 31.9041C16.7198 31.9041 14.4239 31.2708 12.4131 30.0833L11.9381 29.7983L6.99811 31.0966L8.31227 26.2833L7.99561 25.7924C6.6937 23.7135 6.00241 21.3104 6.00061 18.8574C6.00061 11.6691 11.8589 5.81076 19.0473 5.81076C22.5306 5.81076 25.8081 7.17243 28.2623 9.64243C29.4775 10.852 30.4405 12.2908 31.0955 13.8754C31.7505 15.4599 32.0845 17.1587 32.0781 18.8733C32.1098 26.0616 26.2514 31.9041 19.0631 31.9041ZM26.2198 22.1508C25.8239 21.9608 23.8923 21.0108 23.5439 20.8683C23.1798 20.7416 22.9264 20.6783 22.6573 21.0583C22.3881 21.4541 21.6439 22.3408 21.4223 22.5941C21.2006 22.8633 20.9631 22.8949 20.5673 22.6891C20.1714 22.4991 18.9048 22.0716 17.4164 20.7416C16.2448 19.6966 15.4689 18.4141 15.2314 18.0183C15.0098 17.6224 15.1998 17.4166 15.4056 17.2108C15.5798 17.0366 15.8014 16.7516 15.9914 16.5299C16.1814 16.3083 16.2606 16.1341 16.3873 15.8808C16.5139 15.6116 16.4506 15.3899 16.3556 15.1999C16.2606 15.0099 15.4689 13.0783 15.1523 12.2866C14.8356 11.5266 14.5031 11.6216 14.2656 11.6058H13.5056C13.2364 11.6058 12.8248 11.7008 12.4606 12.0966C12.1123 12.4924 11.0989 13.4424 11.0989 15.3741C11.0989 17.3058 12.5081 19.1741 12.6981 19.4274C12.8881 19.6966 15.4689 23.6549 19.3956 25.3491C20.3298 25.7608 21.0581 25.9983 21.6281 26.1724C22.5623 26.4733 23.4173 26.4258 24.0981 26.3308C24.8581 26.2199 26.4256 25.3808 26.7423 24.4624C27.0748 23.5441 27.0748 22.7683 26.9639 22.5941C26.8531 22.4199 26.6156 22.3408 26.2198 22.1508Z" fill="white"/>
</svg>
